<svg width="152" height="40" viewBox="0 0 152 40" fill="none" xmlns="http://www.w3.org/2000/svg">
<path d="M39.6917 23.9838C39.5082 23.9971 39.3477 23.8538 39.3379 23.6671L38.722 13.8804C38.7089 13.6938 38.8498 13.5304 39.0332 13.5204C40.9693 13.3938 42.6367 14.8871 42.7612 16.8571L42.9708 20.1938C43.0953 22.1571 41.6277 23.8571 39.6917 23.9838Z" fill="#F37B21"/>
<path d="M39.672 24.05C39.4623 24.05 39.2854 23.8833 39.2723 23.6666L38.6565 13.88C38.6434 13.6566 38.8104 13.46 39.0299 13.4466C40.9987 13.32 42.7022 14.8433 42.8267 16.8466L43.0363 20.1833C43.0986 21.1533 42.7841 22.09 42.1518 22.82C41.5196 23.55 40.6482 23.9866 39.6949 24.0466C39.6884 24.05 39.6786 24.05 39.672 24.05ZM39.2625 13.5733C39.1872 13.5733 39.1118 13.5766 39.0365 13.58C38.9644 13.5833 38.8989 13.6166 38.853 13.6733C38.8072 13.7266 38.781 13.7966 38.7875 13.87L39.4034 23.6566C39.4132 23.8066 39.541 23.9233 39.6884 23.91C40.6056 23.85 41.4475 23.43 42.0536 22.7266C42.6629 22.0233 42.9642 21.1233 42.9053 20.1866L42.6956 16.85C42.6367 15.9166 42.2239 15.06 41.5327 14.4433C40.9005 13.88 40.1011 13.5733 39.2625 13.5733Z" fill="#F37B21"/>
<g opacity="0.35">
<path opacity="0.35" d="M42.8725 18.6233L42.9708 20.19C43.0953 22.1566 41.6277 23.8566 39.6917 23.9833C39.5082 23.9966 39.3477 23.8533 39.3379 23.6633L39.1741 21.06C39.233 21.1766 39.3542 21.25 39.4918 21.2433L39.7211 21.2266C41.2477 21.13 42.486 20.0466 42.8725 18.6233Z" fill="#371A45"/>
</g>
<path d="M7.28309 15.58C7.46654 15.5667 7.62705 15.71 7.63688 15.8967L8.25274 25.6834C8.26585 25.87 8.12499 26.0334 7.94154 26.0434C6.0055 26.17 4.33809 24.6767 4.21361 22.7067L4.00395 19.3734C3.87947 17.4034 5.34705 15.7067 7.28309 15.58Z" fill="#F37B21"/>
<path d="M7.71245 26.1233C6.84434 26.1233 6.01227 25.8067 5.35383 25.2167C4.63641 24.5733 4.20727 23.6867 4.14831 22.7167L3.93865 19.38C3.87641 18.41 4.19089 17.4733 4.82314 16.7433C5.45538 16.0133 6.32676 15.5767 7.28003 15.5167C7.50279 15.5067 7.69279 15.6733 7.7059 15.8967L8.32176 25.6833C8.32831 25.7933 8.29227 25.8967 8.22348 25.98C8.15141 26.0633 8.05641 26.11 7.94831 26.1167C7.86641 26.12 7.79107 26.1233 7.71245 26.1233ZM7.28658 15.6467C6.36934 15.7067 5.52745 16.1267 4.92141 16.83C4.3121 17.5333 4.01072 18.4333 4.06969 19.37L4.27934 22.7067C4.33831 23.64 4.75107 24.4967 5.44227 25.1133C6.13348 25.73 7.02124 26.04 7.93848 25.98C8.01055 25.9767 8.07607 25.9433 8.12193 25.8867C8.16779 25.8333 8.194 25.7633 8.18745 25.69L7.57159 15.9033C7.56176 15.7533 7.43727 15.6367 7.28658 15.6467Z" fill="#F37B21"/>
<g opacity="0.35">
<path opacity="0.35" d="M8.08259 22.97L8.25293 25.6867C8.26604 25.8733 8.12517 26.0367 7.93845 26.0467C6.92293 26.1133 5.97948 25.7333 5.29483 25.07C4.67569 24.4733 4.26948 23.6433 4.21052 22.71L4.12207 21.3033C4.74776 22.5 6.02535 23.28 7.44379 23.19L7.79431 23.1667C7.92862 23.16 8.03345 23.08 8.08259 22.97Z" fill="#371A45"/>
</g>
<path d="M23.5349 37.2371C32.8071 37.2371 40.3237 29.5886 40.3237 20.1538C40.3237 10.7189 32.8071 3.07043 23.5349 3.07043C14.2627 3.07043 6.74609 10.7189 6.74609 20.1538C6.74609 29.5886 14.2627 37.2371 23.5349 37.2371Z" fill="#F37B21"/>
<path d="M23.5384 37.3033C23.4958 37.3033 23.4565 37.3033 23.4172 37.3033C14.1236 37.2367 6.61533 29.4867 6.68085 20.03C6.74636 10.6133 14.2972 3 23.5352 3C23.5777 3 23.6171 3 23.6564 3C28.1574 3.03333 32.38 4.84667 35.5412 8.11C38.7024 11.3733 40.4255 15.6933 40.3927 20.2733C40.3239 29.69 32.7764 37.3033 23.5384 37.3033ZM23.5319 3.13667C19.1127 3.13667 14.9491 4.87333 11.7977 8.03333C8.61688 11.2233 6.84791 15.4833 6.81516 20.0267C6.7824 24.57 8.4924 28.8567 11.6274 32.0933C14.7624 35.33 18.9489 37.13 23.4139 37.1633C27.8757 37.1933 32.0917 35.4567 35.2726 32.2667C38.4534 29.0767 40.2224 24.8167 40.2552 20.2733C40.2879 15.73 38.5779 11.4433 35.4429 8.20667C32.3079 4.97 28.1214 3.17 23.6564 3.13667C23.6138 3.13667 23.5712 3.13667 23.5319 3.13667Z" fill="#F37B21"/>
<path d="M39.8586 20.33C39.8848 23.6 38.866 26.6467 37.1003 29.1733C35.7768 31.0667 30.3029 34.41 23.5153 34.5267C17.2191 34.6367 11.4634 31.2667 10.1105 29.3933C8.30546 26.8967 7.2408 23.8667 7.21459 20.5967C7.1458 11.94 14.4248 8.29332 23.4399 8.21999C32.4551 8.14666 39.793 11.6733 39.8586 20.33Z" fill="#08171C"/>
<path d="M23.2109 34.9033C16.8328 34.9033 11.2049 31.54 9.81265 29.6133C7.89627 26.96 6.87093 23.8433 6.84472 20.5967C6.81196 16.3733 8.44989 13.1 11.7159 10.8767C14.5692 8.93 18.6247 7.88334 23.4402 7.84334C28.2558 7.80334 32.3244 8.78667 35.2104 10.6867C38.5092 12.86 40.1995 16.1033 40.2323 20.3267C40.2585 23.57 39.279 26.7067 37.4052 29.39C36.1047 31.25 30.6995 34.7767 23.5221 34.9C23.4173 34.9033 23.3125 34.9033 23.2109 34.9033ZM23.6859 8.59334C23.604 8.59334 23.5221 8.59334 23.4435 8.59334C18.6476 8.63334 7.49989 9.88 7.58506 20.59C7.608 23.6767 8.58748 26.64 10.4089 29.1667C11.6832 30.9333 17.1702 34.15 23.2175 34.15C23.3158 34.15 23.4108 34.15 23.509 34.1467C30.3359 34.03 35.6133 30.65 36.7992 28.9533C38.5845 26.4 39.5149 23.4167 39.4887 20.3333C39.4068 9.8 28.6063 8.59334 23.6859 8.59334Z" fill="#08171C"/>
<path d="M33.7784 14.8134C32.3076 13.5 30.6958 13.4934 28.9891 13.82C29.0317 13.66 29.0612 13.55 29.0546 13.5734C28.0751 13.9467 27.0662 14.3734 26.031 14.7C25.6313 14.8267 25.1629 14.7167 24.7239 14.72C24.5012 14.7234 24.2784 14.73 24.0557 14.7467C22.9124 14.83 21.7527 15.0767 20.6291 14.9634C19.4727 14.8467 18.3524 14.3867 17.2091 13.92C17.3041 14.0467 17.3991 14.1767 17.5498 14.3734C15.807 14.2834 14.1724 14.35 12.9308 15.7567C12.7474 14.8634 13.1634 13.81 14.0315 13.09C15.9479 11.5 17.9462 11.7867 20.0067 12.8534C19.8495 12.68 19.6922 12.5067 19.535 12.3334C19.5841 12.25 19.5808 12.2567 19.63 12.17C20.2098 12.3334 20.8224 12.43 21.3662 12.68C22.67 13.28 23.882 13.1834 25.1039 12.4534C25.5855 12.1667 26.1489 12.0167 26.6731 11.8067C26.7288 11.8834 26.7222 11.8734 26.7779 11.95L26.2505 12.6434C28.1013 11.3634 30.021 10.7734 32.1044 12.0367C33.0676 12.63 33.6572 13.4967 33.7784 14.8134Z" fill="#F37B21"/>
<path d="M27.1121 17.2734L28.0851 17.2234C27.5282 16.8801 26.9811 16.5434 26.4832 16.2367C27.6461 16.3467 28.8188 16.4534 29.9556 16.5601C29.9654 16.5467 29.8737 16.6767 29.7787 16.8034C29.8311 16.8801 29.9359 16.9001 30.0113 16.8467C30.5157 16.4834 31.0235 16.1167 31.5083 15.7667C31.7245 16.5034 31.5149 17.1367 30.863 17.5734C29.8999 18.2201 28.1145 18.0867 27.1121 17.2734Z" fill="#F37B21"/>
<path d="M15.1651 16.5801C15.7645 16.9367 16.3313 17.2767 16.9013 17.6167C16.9635 17.5267 16.9504 17.4034 16.8718 17.3267C16.8063 17.2601 16.7539 17.2134 16.7473 17.2034C17.8382 17.0067 18.9978 16.8001 20.0821 16.6034C19.9839 16.6967 19.7808 16.9201 19.5482 17.1034C19.2959 17.3001 19.0175 17.4634 18.5949 17.7434C19.0863 17.6867 19.3975 17.6501 19.7283 17.6101C19.024 18.5167 16.957 18.8467 16.0266 18.3467C15.3256 17.9634 15.0209 17.3601 15.1651 16.5801Z" fill="#F37B21"/>
<path d="M24.6324 27.21C24.6324 27.21 28.7862 26.2233 31.1874 24.1467C30.9122 23.4767 30.4602 22.8033 30.5159 22.9733C29.9884 21.61 29.3988 21.32 29.1007 21.2767C28.606 21.83 28.1572 22.33 27.7084 22.83C27.6069 22.7467 27.6495 22.78 27.5479 22.6967C27.6102 22.6067 27.6757 22.52 27.7379 22.43C28.819 20.91 28.5307 19.2767 26.9845 18.26C26.4571 17.9133 25.9133 17.5867 25.3564 17.2833C24.7143 16.9333 24.0886 17.1733 23.8102 17.8533C23.6955 18.13 23.6136 18.42 23.4662 18.8533C23.3122 18.5133 23.2172 18.3067 23.1255 18.1C22.7193 17.1867 22.0871 17.01 21.2779 17.5933C20.8586 17.8967 20.436 18.1933 20.0298 18.51C18.5164 19.6867 18.3231 21.3433 19.5188 22.8633C19.6597 23.0433 19.8103 23.22 19.9578 23.4C19.8988 23.4667 19.9152 23.4467 19.8595 23.51C19.355 23.1533 18.8538 22.7933 18.3296 22.42C17.3567 23.8767 16.8752 25.4433 16.8228 27.1233L16.9538 27.2267C16.9571 27.23 20.7276 28.35 24.6324 27.21ZM27.0074 19.98C25.6184 21.6233 24.8584 21.78 24.0755 20.5667C25.0812 20.5133 25.8445 19.5267 27.0074 19.98ZM23.0109 20.62C22.3917 21.92 21.5072 21.8167 20.0757 20.3233C21.1502 19.7467 22.0117 20.6667 23.0109 20.62Z" fill="#F37B21"/>
<path d="M30.6305 26.26C28.3211 26.97 26.5914 27.3234 25.1468 27.53C23.1387 28.0067 20.8881 28.3467 18.5688 28.35C18.5066 28.3667 18.4411 28.38 18.3755 28.3967C17.514 28.65 17.7073 28.51 17.0881 28.8667L20.5769 29.1C20.6818 29.1067 20.7014 29.2534 20.6064 29.29C20.0561 29.5067 19.5614 29.7034 19.0078 29.9234C20.0495 31.1334 21.1633 31.9567 22.5916 32.2267C24.5211 32.5934 26.3752 32.2534 28.1376 31.4567C29.0974 31.0234 30.1785 29.8334 30.5749 28.8467C31.0957 27.5467 31.8983 25.87 30.6305 26.26Z" fill="#F37B21"/>
<path d="M65.1943 21.5615C65.1943 22.0932 65.1264 22.5731 64.9907 23.0012C64.8618 23.4224 64.6887 23.7953 64.4716 24.1198C64.2544 24.4443 64 24.7205 63.7082 24.9484C63.4164 25.1762 63.1144 25.3627 62.8023 25.5077C62.4901 25.6527 62.1712 25.7597 61.8455 25.8288C61.5265 25.8978 61.2246 25.9323 60.9396 25.9323H50.7303V23.2394H60.9396C61.4485 23.2394 61.8421 23.0875 62.1203 22.7837C62.4053 22.4799 62.5478 22.0725 62.5478 21.5615C62.5478 21.313 62.5105 21.0851 62.4358 20.878C62.3612 20.6708 62.2526 20.4913 62.1101 20.3394C61.9744 20.1875 61.8048 20.0701 61.6012 19.9872C61.4044 19.9044 61.1839 19.8629 60.9396 19.8629H54.8527C54.4252 19.8629 53.9637 19.787 53.4684 19.6351C52.973 19.4763 52.5116 19.2242 52.0841 18.879C51.6633 18.5338 51.3105 18.0815 51.0255 17.5222C50.7473 16.9629 50.6082 16.2793 50.6082 15.4714C50.6082 14.6636 50.7473 13.9834 51.0255 13.4311C51.3105 12.8718 51.6633 12.4195 52.0841 12.0743C52.5116 11.7221 52.973 11.4701 53.4684 11.3182C53.9637 11.1594 54.4252 11.0799 54.8527 11.0799H63.8609V13.7728H54.8527C54.3505 13.7728 53.957 13.9282 53.672 14.2389C53.3937 14.5496 53.2546 14.9605 53.2546 15.4714C53.2546 15.9893 53.3937 16.4002 53.672 16.704C53.957 17.0009 54.3505 17.1493 54.8527 17.1493H60.9396H60.9599C61.2449 17.1562 61.5469 17.1977 61.8658 17.2736C62.1848 17.3427 62.5003 17.4531 62.8125 17.6051C63.1314 17.757 63.4334 17.9503 63.7184 18.1851C64.0034 18.4129 64.2544 18.6891 64.4716 19.0136C64.6955 19.3382 64.872 19.711 65.0009 20.1322C65.1298 20.5534 65.1943 21.0299 65.1943 21.5615Z" fill="#FFFAF5"/>
<path d="M82.7119 19.9251C82.7119 20.8296 82.5592 21.6617 82.2538 22.4212C81.9485 23.1807 81.5244 23.8367 80.9815 24.3891C80.4386 24.9415 79.794 25.373 79.0475 25.6838C78.3079 25.9876 77.5004 26.1395 76.625 26.1395H73.0421C72.1667 26.1395 71.3558 25.9876 70.6094 25.6838C69.8629 25.373 69.2183 24.9415 68.6754 24.3891C68.1325 23.8367 67.705 23.1807 67.3929 22.4212C67.0875 21.6617 66.9348 20.8296 66.9348 19.9251V17.0872C66.9348 16.1896 67.0875 15.361 67.3929 14.6014C67.705 13.835 68.1325 13.179 68.6754 12.6335C69.2183 12.0812 69.8629 11.6496 70.6094 11.3389C71.3558 11.0282 72.1667 10.8728 73.0421 10.8728H76.625C77.5004 10.8728 78.3079 11.0282 79.0475 11.3389C79.794 11.6496 80.4386 12.0812 80.9815 12.6335C81.5244 13.179 81.9485 13.835 82.2538 14.6014C82.5592 15.361 82.7119 16.1896 82.7119 17.0872V19.9251ZM80.0654 17.0872C80.0654 16.5555 79.9806 16.0756 79.8109 15.6475C79.6481 15.2125 79.414 14.8431 79.1086 14.5393C78.81 14.2286 78.447 13.9904 78.0195 13.8246C77.5988 13.652 77.1339 13.5657 76.625 13.5657H73.0421C72.5264 13.5657 72.0547 13.652 71.6272 13.8246C71.2065 13.9904 70.8435 14.2286 70.5381 14.5393C70.2328 14.8431 69.9952 15.2125 69.8256 15.6475C69.6627 16.0756 69.5813 16.5555 69.5813 17.0872V19.9251C69.5813 20.4568 69.6627 20.9401 69.8256 21.3751C69.9952 21.8032 70.2328 22.1726 70.5381 22.4833C70.8435 22.7872 71.2065 23.0254 71.6272 23.198C72.0547 23.3637 72.5264 23.4466 73.0421 23.4466H76.6046C77.1204 23.4466 77.5886 23.3637 78.0093 23.198C78.4368 23.0254 78.8032 22.7872 79.1086 22.4833C79.414 22.1726 79.6481 21.8032 79.8109 21.3751C79.9806 20.9401 80.0654 20.4568 80.0654 19.9251V17.0872Z" fill="#FFFAF5"/>
<path d="M98.7332 25.9323H86.6612C86.4712 25.9323 86.2948 25.8978 86.1319 25.8288C85.9691 25.7597 85.8266 25.6665 85.7044 25.5491C85.5891 25.4248 85.4975 25.2798 85.4296 25.1141C85.3617 24.9484 85.3278 24.7689 85.3278 24.5755V11.0799H87.9743V23.2394H98.7332V25.9323Z" fill="#FFFAF5"/>
<path d="M114.999 25.9323H112.352V22.2866H103.049V25.9323H100.403V18.5061C100.403 17.4221 100.586 16.4243 100.952 15.5129C101.319 14.6014 101.828 13.8177 102.479 13.1618C103.13 12.5058 103.901 11.9948 104.79 11.6289C105.678 11.2629 106.649 11.0799 107.701 11.0799H113.665C113.849 11.0799 114.022 11.1145 114.185 11.1835C114.347 11.2526 114.49 11.3492 114.612 11.4735C114.734 11.5978 114.829 11.7428 114.897 11.9085C114.965 12.0743 114.999 12.2503 114.999 12.4368V25.9323ZM103.049 19.5937H112.352V13.7728H107.701C107.619 13.7728 107.446 13.7867 107.182 13.8143C106.924 13.835 106.622 13.8937 106.276 13.9904C105.936 14.087 105.577 14.2355 105.197 14.4357C104.817 14.636 104.467 14.9122 104.148 15.2643C103.829 15.6164 103.565 16.0584 103.354 16.59C103.151 17.1148 103.049 17.7535 103.049 18.5061V19.5937Z" fill="#FFFAF5"/>
<path d="M132.628 17.2943C132.628 17.9089 132.554 18.4578 132.404 18.9411C132.255 19.4245 132.052 19.8526 131.794 20.2255C131.543 20.5914 131.251 20.9056 130.918 21.168C130.586 21.4304 130.236 21.6444 129.87 21.8101C129.51 21.9758 129.144 22.0967 128.771 22.1726C128.404 22.2486 128.058 22.2866 127.732 22.2866H121.747V19.5937H127.732C128.072 19.566 128.377 19.497 128.648 19.3865C128.927 19.2691 129.164 19.1138 129.361 18.9204C129.558 18.7271 129.71 18.4958 129.819 18.2265C129.928 17.9503 129.982 17.6396 129.982 17.2943V16.0722C129.948 15.7338 129.877 15.4231 129.768 15.14C129.66 14.8569 129.51 14.6152 129.32 14.415C129.137 14.2148 128.913 14.0594 128.648 13.9489C128.384 13.8315 128.078 13.7728 127.732 13.7728H121.768C121.415 13.7728 121.147 13.8661 120.964 14.0525C120.78 14.2389 120.689 14.5082 120.689 14.8604V25.9323H118.042V14.8604C118.042 14.1699 118.164 13.583 118.409 13.0996C118.66 12.6163 118.969 12.2262 119.335 11.9292C119.708 11.6323 120.112 11.4183 120.546 11.2871C120.981 11.149 121.381 11.0799 121.747 11.0799H127.732C128.33 11.0799 128.866 11.1594 129.341 11.3182C129.816 11.4701 130.233 11.6772 130.593 11.9396C130.959 12.1951 131.268 12.492 131.519 12.8303C131.777 13.1687 131.987 13.5243 132.15 13.8971C132.32 14.2631 132.442 14.636 132.516 15.0157C132.591 15.3886 132.628 15.7407 132.628 16.0722V17.2943Z" fill="#FFFAF5"/>
<path d="M146.899 19.8629H138.542V17.1493H146.899V19.8629ZM148.09 25.9323H138.542C138.176 25.9323 137.775 25.8667 137.341 25.7355C136.907 25.6043 136.503 25.3903 136.13 25.0934C135.763 24.7896 135.455 24.3994 135.204 23.923C134.959 23.4397 134.837 22.8493 134.837 22.1519V12.4368C134.837 12.2503 134.871 12.0743 134.939 11.9085C135.007 11.7428 135.098 11.5978 135.214 11.4735C135.336 11.3492 135.478 11.2526 135.641 11.1835C135.804 11.1145 135.981 11.0799 136.171 11.0799H148.09V13.7728H137.484V22.1519C137.484 22.5041 137.575 22.7734 137.758 22.9598C137.942 23.1462 138.21 23.2394 138.563 23.2394H148.09V25.9323Z" fill="#FFFAF5"/>
</svg>
