<svg width="464" height="120" viewBox="0 0 464 120" fill="none" xmlns="http://www.w3.org/2000/svg">
<path d="M121.174 71.94C120.614 71.98 120.124 71.55 120.094 70.99L118.214 41.63C118.174 41.07 118.604 40.58 119.164 40.55C125.074 40.17 130.164 44.65 130.544 50.56L131.184 60.57C131.564 66.47 127.074 71.56 121.174 71.94Z" fill="url(#paint0_linear)"/>
<path d="M121.104 72.15C120.464 72.15 119.924 71.65 119.884 71L118.004 41.64C117.964 40.97 118.474 40.38 119.144 40.34C125.154 39.96 130.354 44.53 130.734 50.54L131.374 60.55C131.564 63.46 130.604 66.27 128.674 68.46C126.744 70.65 124.084 71.96 121.174 72.14C121.154 72.15 121.134 72.15 121.104 72.15ZM119.864 40.72C119.634 40.72 119.404 40.73 119.174 40.74C118.954 40.75 118.754 40.85 118.614 41.02C118.474 41.18 118.394 41.39 118.414 41.61L120.294 70.97C120.324 71.42 120.714 71.77 121.164 71.73C123.964 71.55 126.534 70.29 128.384 68.18C130.244 66.07 131.164 63.37 130.984 60.56L130.344 50.55C130.164 47.75 128.904 45.18 126.794 43.33C124.854 41.64 122.414 40.72 119.864 40.72Z" fill="url(#paint1_linear)"/>
<g opacity="0.35">
<path opacity="0.35" d="M130.884 55.87L131.184 60.57C131.564 66.47 127.084 71.57 121.174 71.95C120.614 71.99 120.124 71.56 120.094 70.99L119.594 63.18C119.774 63.53 120.144 63.75 120.564 63.73L121.264 63.68C125.914 63.38 129.694 60.14 130.884 55.87Z" fill="#371A45"/>
</g>
<path d="M22.2437 46.74C22.8037 46.7 23.2937 47.13 23.3237 47.69L25.2037 77.05C25.2437 77.61 24.8137 78.1 24.2537 78.13C18.3437 78.51 13.2537 74.03 12.8737 68.12L12.2337 58.11C11.8537 52.21 16.3337 47.11 22.2437 46.74Z" fill="url(#paint2_linear)"/>
<path d="M23.5436 78.36C20.8936 78.36 18.3536 77.41 16.3436 75.64C14.1536 73.71 12.8436 71.05 12.6636 68.14L12.0236 58.13C11.8336 55.22 12.7936 52.41 14.7236 50.22C16.6536 48.03 19.3136 46.72 22.2236 46.54C22.9036 46.51 23.4836 47.01 23.5236 47.68L25.4036 77.04C25.4236 77.37 25.3136 77.68 25.1036 77.93C24.8836 78.18 24.5936 78.32 24.2636 78.34C24.0236 78.36 23.7836 78.36 23.5436 78.36ZM22.2536 46.94C19.4536 47.12 16.8836 48.38 15.0336 50.49C13.1736 52.6 12.2536 55.3 12.4336 58.11L13.0736 68.12C13.2536 70.92 14.5136 73.49 16.6236 75.34C18.7336 77.19 21.4436 78.12 24.2436 77.94C24.4636 77.93 24.6636 77.83 24.8036 77.66C24.9436 77.5 25.0236 77.29 25.0036 77.07L23.1236 47.71C23.0936 47.25 22.7036 46.91 22.2536 46.94Z" fill="url(#paint3_linear)"/>
<g opacity="0.35">
<path opacity="0.35" d="M24.6837 68.91L25.2038 77.06C25.2438 77.62 24.8138 78.11 24.2438 78.14C21.1438 78.34 18.2638 77.2 16.1738 75.21C14.2838 73.42 13.0438 70.93 12.8638 68.13L12.5938 63.91C14.5037 67.5 18.4037 69.84 22.7337 69.57L23.8038 69.5C24.2038 69.47 24.5237 69.24 24.6837 68.91Z" fill="#371A45"/>
</g>
<path d="M71.8535 111.7C100.158 111.7 123.104 88.7546 123.104 60.45C123.104 32.1454 100.158 9.20001 71.8535 9.20001C43.5489 9.20001 20.6035 32.1454 20.6035 60.45C20.6035 88.7546 43.5489 111.7 71.8535 111.7Z" fill="url(#paint4_linear)"/>
<path d="M71.8536 111.91C71.7236 111.91 71.6036 111.91 71.4836 111.91C43.1136 111.71 20.1936 88.46 20.3936 60.09C20.5936 31.84 43.6436 9 71.8436 9C71.9736 9 72.0936 9 72.2136 9C85.9536 9.1 98.8436 14.54 108.494 24.33C118.144 34.12 123.404 47.08 123.304 60.82C123.104 89.07 100.054 111.91 71.8536 111.91ZM71.8436 9.41C58.3536 9.41 45.6436 14.62 36.0236 24.1C26.3136 33.67 20.9136 46.45 20.8136 60.08C20.7136 73.71 25.9336 86.57 35.5036 96.28C45.0736 105.99 57.8536 111.39 71.4836 111.49C85.1036 111.58 97.9736 106.37 107.684 96.8C117.394 87.23 122.794 74.45 122.894 60.82C122.994 47.19 117.774 34.33 108.204 24.62C98.6336 14.91 85.8536 9.51 72.2236 9.41C72.0936 9.41 71.9636 9.41 71.8436 9.41Z" fill="url(#paint5_linear)"/>
<path d="M121.684 60.98C121.764 70.79 118.654 79.93 113.264 87.51C109.224 93.19 92.5137 103.22 71.7937 103.57C52.5737 103.9 35.0037 93.79 30.8737 88.17C25.3637 80.68 22.1137 71.59 22.0337 61.78C21.8237 35.82 44.0537 24.87 71.5737 24.66C99.0837 24.43 121.474 35.02 121.684 60.98Z" fill="#08171C"/>
<path d="M70.8536 104.7C51.3836 104.7 34.2036 94.61 29.9536 88.83C24.1036 80.87 20.9736 71.52 20.8936 61.78C20.7936 49.11 25.7936 39.29 35.7636 32.62C44.4736 26.78 56.8536 23.64 71.5536 23.52C86.2536 23.4 98.6736 26.35 107.484 32.05C117.554 38.57 122.714 48.3 122.814 60.97C122.894 70.7 119.904 80.11 114.184 88.16C110.214 93.74 93.7136 104.32 71.8036 104.69C71.4836 104.7 71.1736 104.7 70.8536 104.7ZM72.3136 25.78C72.0636 25.78 71.8136 25.78 71.5736 25.78C56.9336 25.9 22.9036 29.64 23.1636 61.77C23.2336 71.03 26.2236 79.92 31.7836 87.5C35.6736 92.8 52.4236 102.45 70.8836 102.45C71.1836 102.45 71.4736 102.45 71.7736 102.44C92.6136 102.09 108.724 91.95 112.344 86.86C117.794 79.2 120.634 70.25 120.554 61C120.304 29.4 87.3336 25.78 72.3136 25.78Z" fill="#08171C"/>
<path d="M103.124 44.44C98.6337 40.5 93.7137 40.48 88.5037 41.46C88.6337 40.98 88.7237 40.65 88.7037 40.72C85.7137 41.84 82.6337 43.12 79.4737 44.1C78.2537 44.48 76.8237 44.15 75.4837 44.16C74.8037 44.17 74.1237 44.19 73.4437 44.24C69.9537 44.49 66.4137 45.23 62.9837 44.89C59.4537 44.54 56.0337 43.16 52.5437 41.76C52.8337 42.14 53.1237 42.53 53.5837 43.12C48.2637 42.85 43.2737 43.05 39.4837 47.27C38.9237 44.59 40.1937 41.43 42.8437 39.27C48.6937 34.5 54.7937 35.36 61.0837 38.56C60.6037 38.04 60.1237 37.52 59.6437 37C59.7937 36.75 59.7837 36.77 59.9337 36.51C61.7037 37 63.5737 37.29 65.2337 38.04C69.2137 39.84 72.9137 39.55 76.6437 37.36C78.1137 36.5 79.8337 36.05 81.4337 35.42C81.6037 35.65 81.5837 35.62 81.7537 35.85L80.1437 37.93C85.7937 34.09 91.6537 32.32 98.0137 36.11C100.944 37.89 102.744 40.48 103.124 44.44Z" fill="url(#paint6_linear)"/>
<path d="M82.7638 51.81L85.7338 51.66C84.0338 50.63 82.3637 49.62 80.8438 48.7C84.3937 49.03 87.9738 49.35 91.4438 49.67C91.4738 49.63 91.1937 50.02 90.9037 50.4C91.0637 50.63 91.3837 50.69 91.6137 50.53C93.1537 49.44 94.7037 48.34 96.1837 47.29C96.8437 49.5 96.2037 51.4 94.2137 52.71C91.2837 54.66 85.8338 54.25 82.7638 51.81Z" fill="url(#paint7_linear)"/>
<path d="M46.3037 49.74C48.1337 50.81 49.8637 51.83 51.6037 52.85C51.7937 52.58 51.7537 52.21 51.5137 51.98C51.3137 51.78 51.1537 51.64 51.1337 51.61C54.4637 51.02 58.0037 50.4 61.3137 49.81C61.0137 50.09 60.3937 50.76 59.6837 51.31C58.9137 51.9 58.0637 52.39 56.7737 53.23C58.2737 53.06 59.2237 52.95 60.2337 52.83C58.0837 55.55 51.7737 56.54 48.9337 55.04C46.7937 53.89 45.8537 52.08 46.3037 49.74Z" fill="url(#paint8_linear)"/>
<path d="M75.1938 81.63C75.1938 81.63 87.8738 78.67 95.2038 72.44C94.3638 70.43 92.9837 68.4101 93.1537 68.9201C91.5437 64.8301 89.7437 63.96 88.8337 63.83C87.3237 65.49 85.9537 66.99 84.5837 68.49C84.2737 68.24 84.4038 68.34 84.0938 68.09C84.2837 67.82 84.4838 67.56 84.6738 67.29C87.9738 62.73 87.0937 57.83 82.3737 54.78C80.7637 53.74 79.1037 52.76 77.4037 51.85C75.4437 50.8 73.5337 51.5201 72.6837 53.5601C72.3337 54.3901 72.0838 55.2601 71.6338 56.5601C71.1638 55.5401 70.8738 54.92 70.5938 54.3C69.3537 51.56 67.4238 51.03 64.9538 52.78C63.6738 53.69 62.3838 54.58 61.1438 55.53C56.5238 59.06 55.9337 64.03 59.5837 68.59C60.0137 69.13 60.4738 69.6601 60.9238 70.2001C60.7438 70.4001 60.7937 70.34 60.6237 70.53C59.0837 69.46 57.5538 68.38 55.9538 67.26C52.9838 71.63 51.5138 76.33 51.3538 81.37L51.7538 81.68C51.7738 81.68 63.2838 85.04 75.1938 81.63ZM82.4438 59.93C78.2038 64.86 75.8837 65.33 73.4937 61.69C76.5737 61.54 78.8938 58.57 82.4438 59.93ZM70.2538 61.85C68.3638 65.75 65.6638 65.44 61.2938 60.96C64.5638 59.23 67.1938 62 70.2538 61.85Z" fill="url(#paint9_linear)"/>
<path d="M93.5138 78.77C86.4638 80.9 81.1838 81.96 76.7738 82.58C70.6438 84.01 63.7738 85.03 56.6938 85.04C56.5038 85.09 56.3038 85.13 56.1038 85.18C53.4738 85.94 54.0638 85.52 52.1738 86.59L62.8238 87.29C63.1438 87.31 63.2038 87.75 62.9138 87.86C61.2338 88.51 59.7238 89.1 58.0338 89.76C61.2138 93.39 64.6138 95.86 68.9738 96.67C74.8638 97.77 80.5238 96.75 85.9038 94.36C88.8338 93.06 92.1338 89.49 93.3438 86.53C94.9338 82.64 97.3738 77.61 93.5138 78.77Z" fill="url(#paint10_linear)"/>
<path d="M199.02 65.0662C199.02 66.6613 198.813 68.1009 198.399 69.3852C198.005 70.6488 197.477 71.7674 196.814 72.741C196.151 73.7146 195.374 74.5432 194.483 75.2267C193.593 75.9103 192.671 76.4696 191.718 76.9046C190.765 77.3396 189.792 77.6607 188.797 77.8679C187.824 78.075 186.902 78.1786 186.032 78.1786H154.867V70.0999H186.032C187.585 70.0999 188.787 69.6442 189.636 68.7327C190.506 67.8213 190.941 66.5991 190.941 65.0662C190.941 64.3205 190.827 63.6369 190.599 63.0155C190.372 62.394 190.04 61.8555 189.605 61.3997C189.191 60.944 188.673 60.5919 188.052 60.3433C187.451 60.0947 186.778 59.9704 186.032 59.9704H167.451C166.146 59.9704 164.737 59.7426 163.225 59.2868C161.713 58.8104 160.304 58.0543 158.999 57.0186C157.715 55.9829 156.638 54.6261 155.768 52.9482C154.919 51.2703 154.494 49.2195 154.494 46.7959C154.494 44.3723 154.919 42.3319 155.768 40.6748C156.638 38.9969 157.715 37.6401 158.999 36.6043C160.304 35.5479 161.713 34.7918 163.225 34.3361C164.737 33.8597 166.146 33.6214 167.451 33.6214H194.95V41.7001H167.451C165.918 41.7001 164.717 42.1662 163.847 43.0984C162.997 44.0305 162.573 45.2631 162.573 46.7959C162.573 48.3495 162.997 49.582 163.847 50.4935C164.717 51.3842 165.918 51.8296 167.451 51.8296H186.032H186.094C186.964 51.8503 187.886 51.9746 188.859 52.2024C189.833 52.4096 190.796 52.741 191.749 53.1968C192.723 53.6525 193.645 54.2325 194.515 54.9368C195.385 55.6204 196.151 56.4489 196.814 57.4225C197.497 58.3961 198.036 59.5147 198.43 60.7783C198.823 62.0419 199.02 63.4712 199.02 65.0662Z" fill="white"/>
<path d="M252.495 60.1569C252.495 62.8705 252.029 65.3666 251.097 67.6452C250.164 69.9238 248.87 71.8917 247.213 73.5489C245.555 75.206 243.587 76.5007 241.309 77.4328C239.051 78.3443 236.586 78.8 233.914 78.8H222.976C220.304 78.8 217.829 78.3443 215.55 77.4328C213.272 76.5007 211.304 75.206 209.647 73.5489C207.989 71.8917 206.684 69.9238 205.731 67.6452C204.799 65.3666 204.333 62.8705 204.333 60.1569V51.6432C204.333 48.9503 204.799 46.4645 205.731 44.1859C206.684 41.8866 207.989 39.9187 209.647 38.2822C211.304 36.6251 213.272 35.3304 215.55 34.3982C217.829 33.4661 220.304 33 222.976 33H233.914C236.586 33 239.051 33.4661 241.309 34.3982C243.587 35.3304 245.555 36.6251 247.213 38.2822C248.87 39.9187 250.164 41.8866 251.097 44.1859C252.029 46.4645 252.495 48.9503 252.495 51.6432V60.1569ZM244.416 51.6432C244.416 50.0481 244.157 48.6085 243.639 47.3242C243.142 46.0191 242.427 44.9109 241.495 43.9995C240.584 43.0673 239.476 42.3527 238.171 41.8555C236.886 41.3376 235.467 41.0787 233.914 41.0787H222.976C221.402 41.0787 219.962 41.3376 218.657 41.8555C217.373 42.3527 216.265 43.0673 215.333 43.9995C214.401 44.9109 213.676 46.0191 213.158 47.3242C212.661 48.6085 212.412 50.0481 212.412 51.6432V60.1569C212.412 61.7519 212.661 63.2019 213.158 64.5069C213.676 65.7912 214.401 66.8995 215.333 67.8316C216.265 68.7431 217.373 69.4577 218.657 69.9756C219.962 70.4727 221.402 70.7213 222.976 70.7213H233.852C235.426 70.7213 236.855 70.4727 238.14 69.9756C239.445 69.4577 240.563 68.7431 241.495 67.8316C242.427 66.8995 243.142 65.7912 243.639 64.5069C244.157 63.2019 244.416 61.7519 244.416 60.1569V51.6432Z" fill="white"/>
<path d="M301.402 78.1786H264.551C263.971 78.1786 263.432 78.075 262.935 77.8679C262.438 77.6607 262.003 77.3811 261.63 77.0289C261.278 76.6561 260.998 76.221 260.791 75.7239C260.584 75.2267 260.48 74.6882 260.48 74.1082V33.6214H268.559V70.0999H301.402V78.1786Z" fill="white"/>
<path d="M351.055 78.1786H342.976V67.2413H314.576V78.1786H306.498V55.9C306.498 52.6478 307.057 49.6546 308.176 46.9202C309.294 44.1859 310.848 41.8348 312.836 39.8669C314.825 37.899 317.176 36.3661 319.89 35.2683C322.603 34.1704 325.566 33.6214 328.776 33.6214H346.984C347.544 33.6214 348.072 33.725 348.569 33.9322C349.066 34.1393 349.501 34.4293 349.874 34.8022C350.247 35.175 350.537 35.61 350.744 36.1072C350.951 36.6043 351.055 37.1326 351.055 37.6919V78.1786ZM314.576 59.1626H342.976V41.7001H328.776C328.528 41.7001 328 41.7416 327.192 41.8244C326.404 41.8866 325.483 42.0626 324.426 42.3526C323.391 42.6427 322.293 43.088 321.133 43.6887C319.973 44.2895 318.906 45.1181 317.932 46.1745C316.959 47.2309 316.151 48.5567 315.509 50.1517C314.887 51.726 314.576 53.6421 314.576 55.9V59.1626Z" fill="white"/>
<path d="M404.871 52.2646C404.871 54.1082 404.644 55.755 404.188 57.205C403.732 58.6551 403.111 59.9394 402.324 61.0579C401.557 62.1558 400.666 63.0983 399.651 63.8855C398.636 64.6726 397.57 65.3148 396.451 65.812C395.353 66.3091 394.234 66.6716 393.095 66.8995C391.977 67.1273 390.92 67.2413 389.926 67.2413H371.656V59.1626H389.926C390.962 59.0797 391.894 58.8726 392.722 58.5411C393.572 58.189 394.297 57.7229 394.897 57.1429C395.498 56.5629 395.964 55.8689 396.296 55.0611C396.627 54.2325 396.793 53.3003 396.793 52.2646V48.5981C396.689 47.5831 396.472 46.6509 396.14 45.8016C395.809 44.9523 395.353 44.2273 394.773 43.6266C394.214 43.0259 393.53 42.5598 392.722 42.2284C391.914 41.8762 390.982 41.7001 389.926 41.7001H371.718C370.641 41.7001 369.822 41.9798 369.263 42.5391C368.704 43.0984 368.424 43.9062 368.424 44.9627V78.1786H360.345V44.9627C360.345 42.8912 360.718 41.1305 361.464 39.6805C362.23 38.2304 363.173 37.0601 364.292 36.1693C365.431 35.2786 366.663 34.6365 367.989 34.2429C369.315 33.8286 370.537 33.6214 371.656 33.6214H389.926C391.749 33.6214 393.385 33.8597 394.835 34.3361C396.285 34.7918 397.559 35.4133 398.657 36.2004C399.776 36.9668 400.718 37.8576 401.485 38.8726C402.272 39.8876 402.914 40.9544 403.411 42.073C403.929 43.1709 404.302 44.2895 404.53 45.4288C404.758 46.5474 404.871 47.6038 404.871 48.5981V52.2646Z" fill="white"/>
<path d="M448.434 59.9704H422.924V51.8296H448.434V59.9704ZM452.07 78.1786H422.924C421.806 78.1786 420.583 77.9818 419.258 77.5882C417.932 77.1946 416.699 76.5525 415.56 75.6618C414.442 74.7503 413.499 73.5799 412.733 72.1506C411.987 70.7006 411.614 68.9295 411.614 66.8373V37.6919C411.614 37.1326 411.718 36.6043 411.925 36.1072C412.132 35.61 412.412 35.175 412.764 34.8022C413.137 34.4293 413.572 34.1393 414.069 33.9322C414.566 33.725 415.104 33.6214 415.684 33.6214H452.07V41.7001H419.693V66.8373C419.693 67.8938 419.972 68.7016 420.532 69.2609C421.091 69.8202 421.909 70.0999 422.986 70.0999H452.07V78.1786Z" fill="white"/>
<defs>
<linearGradient id="paint0_linear" x1="118.207" y1="56.231" x2="131.205" y2="56.231" gradientUnits="userSpaceOnUse">
<stop offset="0.0472" stop-color="#DF1767"/>
<stop offset="0.9756" stop-color="#F9C927"/>
</linearGradient>
<linearGradient id="paint1_linear" x1="118.004" y1="56.2312" x2="131.408" y2="56.2312" gradientUnits="userSpaceOnUse">
<stop offset="0.0472" stop-color="#DF1767"/>
<stop offset="0.9756" stop-color="#F9C927"/>
</linearGradient>
<linearGradient id="paint2_linear" x1="12.2063" y1="62.447" x2="25.2035" y2="62.447" gradientUnits="userSpaceOnUse">
<stop offset="0.0472" stop-color="#DF1767"/>
<stop offset="0.9756" stop-color="#F9C927"/>
</linearGradient>
<linearGradient id="paint3_linear" x1="12.0029" y1="62.4475" x2="25.4065" y2="62.4475" gradientUnits="userSpaceOnUse">
<stop offset="0.0472" stop-color="#DF1767"/>
<stop offset="0.9756" stop-color="#F9C927"/>
</linearGradient>
<linearGradient id="paint4_linear" x1="20.5988" y1="60.4524" x2="123.1" y2="60.4524" gradientUnits="userSpaceOnUse">
<stop offset="0.0472" stop-color="#DF1767"/>
<stop offset="0.9756" stop-color="#F9C927"/>
</linearGradient>
<linearGradient id="paint5_linear" x1="20.3915" y1="60.4525" x2="123.307" y2="60.4525" gradientUnits="userSpaceOnUse">
<stop offset="0.0472" stop-color="#DF1767"/>
<stop offset="0.9756" stop-color="#F9C927"/>
</linearGradient>
<linearGradient id="paint6_linear" x1="39.3337" y1="40.6608" x2="103.12" y2="40.6608" gradientUnits="userSpaceOnUse">
<stop offset="0.0472" stop-color="#DF1767"/>
<stop offset="0.9756" stop-color="#F9C927"/>
</linearGradient>
<linearGradient id="paint7_linear" x1="80.8437" y1="50.627" x2="96.4362" y2="50.627" gradientUnits="userSpaceOnUse">
<stop offset="0.0472" stop-color="#DF1767"/>
<stop offset="0.9756" stop-color="#F9C927"/>
</linearGradient>
<linearGradient id="paint8_linear" x1="46.1942" y1="52.7297" x2="61.3137" y2="52.7297" gradientUnits="userSpaceOnUse">
<stop offset="0.0472" stop-color="#DF1767"/>
<stop offset="0.9756" stop-color="#F9C927"/>
</linearGradient>
<linearGradient id="paint9_linear" x1="51.3777" y1="67.2618" x2="95.2092" y2="67.2618" gradientUnits="userSpaceOnUse">
<stop offset="0.0472" stop-color="#DF1767"/>
<stop offset="0.9756" stop-color="#F9C927"/>
</linearGradient>
<linearGradient id="paint10_linear" x1="52.1762" y1="87.8598" x2="95.58" y2="87.8598" gradientUnits="userSpaceOnUse">
<stop offset="0.0472" stop-color="#DF1767"/>
<stop offset="0.9756" stop-color="#F9C927"/>
</linearGradient>
</defs>
</svg>
